<svg width="80" height="39" viewBox="0 0 80 39" fill="none" xmlns="http://www.w3.org/2000/svg">
<g clip-path="url(#clip0_982_5650)">
<mask id="mask0_982_5650" style="mask-type:alpha" maskUnits="userSpaceOnUse" x="0" y="6" width="25" height="26">
<path d="M17.4892 13.5937C16.167 12.3547 14.5112 11.7123 12.6482 11.7123C9.35983 11.7123 6.5658 13.9261 5.56528 16.9086V16.9091C5.31235 17.6663 5.16283 18.4693 5.16283 19.3067C5.16283 20.1442 5.31235 20.9473 5.56528 21.7044L5.55022 21.7159H5.56513C6.56549 24.6987 9.35967 26.9128 12.6482 26.9128C14.3498 26.9128 15.7871 26.4539 16.9139 25.6968L16.9146 25.697V25.6967C18.26 24.8019 19.1566 23.4712 19.4555 21.8995H12.6485V17.0124H24.5612C24.7103 17.8383 24.7906 18.6988 24.7906 19.5936C24.7906 23.4367 23.4112 26.6719 21.0194 28.8745C18.9265 30.8018 16.0636 31.9261 12.6482 31.9261C7.70386 31.9261 3.4379 29.0925 1.3567 24.974V24.9622C0.494424 23.2644 0 21.3486 0 19.3067C0 17.2647 0.494427 15.349 1.35678 13.6511C3.43805 9.52119 7.70386 6.6875 12.6482 6.6875C16.0636 6.6875 18.9149 7.93799 21.1113 9.97996L17.4892 13.5937Z" fill="#EA4335"/>
</mask>
<g mask="url(#mask0_982_5650)">
<g filter="url(#filter0_f_982_5650)">
<g clip-path="url(#paint0_angular_982_5650_clip_path)" data-figma-skip-parse="true"><g transform="matrix(0.0101849 -0.0101748 0.0101849 0.0101748 12.2626 19.0609)"><foreignObject x="-1637.4" y="-1637.4" width="3274.81" height="3274.81"><div xmlns="http://www.w3.org/1999/xhtml" style="background:conic-gradient(from 90deg,rgba(250, 77, 73, 1) 0deg,rgba(57, 144, 255, 1) 39.154deg,rgba(57, 144, 255, 1) 72.0044deg,rgba(1, 166, 184, 1) 96.7463deg,rgba(14, 188, 95, 1) 120.897deg,rgba(14, 188, 95, 1) 154.722deg,rgba(108, 196, 0, 1) 179.136deg,rgba(255, 204, 0, 1) 203.588deg,rgba(255, 211, 20, 1) 226.915deg,rgba(255, 204, 0, 1) 251.688deg,rgba(255, 106, 43, 1) 273.129deg,rgba(255, 76, 69, 1) 289.305deg,rgba(255, 76, 69, 1) 359.117deg,rgba(250, 77, 73, 1) 360deg);height:100%;width:100%;opacity:1"></div></foreignObject></g></g><path d="M-3.47168 19.061C-3.47168 10.0678 3.82595 2.77734 12.828 2.77734C21.8296 2.77734 29.1279 10.0678 29.1279 19.061C29.1279 28.0541 21.8296 35.3445 12.828 35.3445C3.82595 35.3445 -3.47168 28.0541 -3.47168 19.061Z" data-figma-gradient-fill="{&#34;type&#34;:&#34;GRADIENT_ANGULAR&#34;,&#34;stops&#34;:[{&#34;color&#34;:{&#34;r&#34;:0.22352941334247589,&#34;g&#34;:0.56470590829849243,&#34;b&#34;:1.0,&#34;a&#34;:1.0},&#34;position&#34;:0.10876122117042542},{&#34;color&#34;:{&#34;r&#34;:0.22352941334247589,&#34;g&#34;:0.56470590829849243,&#34;b&#34;:1.0,&#34;a&#34;:1.0},&#34;position&#34;:0.20001229643821716},{&#34;color&#34;:{&#34;r&#34;:0.0039215688593685627,&#34;g&#34;:0.65098041296005249,&#34;b&#34;:0.72156864404678345,&#34;a&#34;:1.0},&#34;position&#34;:0.26873961091041565},{&#34;color&#34;:{&#34;r&#34;:0.054901961237192154,&#34;g&#34;:0.73725491762161255,&#34;b&#34;:0.37254902720451355,&#34;a&#34;:1.0},&#34;position&#34;:0.33582508563995361},{&#34;color&#34;:{&#34;r&#34;:0.054901961237192154,&#34;g&#34;:0.73725491762161255,&#34;b&#34;:0.37254902720451355,&#34;a&#34;:1.0},&#34;position&#34;:0.42978334426879883},{&#34;color&#34;:{&#34;r&#34;:0.42528781294822693,&#34;g&#34;:0.77231442928314209,&#34;b&#34;:0.0,&#34;a&#34;:1.0},&#34;position&#34;:0.49760133028030396},{&#34;color&#34;:{&#34;r&#34;:1.0,&#34;g&#34;:0.80000001192092896,&#34;b&#34;:0.0,&#34;a&#34;:1.0},&#34;position&#34;:0.56552332639694214},{&#34;color&#34;:{&#34;r&#34;:1.0,&#34;g&#34;:0.82745099067687988,&#34;b&#34;:0.078431375324726105,&#34;a&#34;:1.0},&#34;position&#34;:0.63031959533691406},{&#34;color&#34;:{&#34;r&#34;:1.0,&#34;g&#34;:0.80000001192092896,&#34;b&#34;:0.0,&#34;a&#34;:1.0},&#34;position&#34;:0.69913208484649658},{&#34;color&#34;:{&#34;r&#34;:1.0,&#34;g&#34;:0.41842123866081238,&#34;b&#34;:0.16917318105697632,&#34;a&#34;:1.0},&#34;position&#34;:0.75869029760360718},{&#34;color&#34;:{&#34;r&#34;:1.0,&#34;g&#34;:0.29803922772407532,&#34;b&#34;:0.27058824896812439,&#34;a&#34;:1.0},&#34;position&#34;:0.80362409353256226},{&#34;color&#34;:{&#34;r&#34;:1.0,&#34;g&#34;:0.29803922772407532,&#34;b&#34;:0.27058824896812439,&#34;a&#34;:1.0},&#34;position&#34;:0.99754786491394043}],&#34;stopsVar&#34;:[{&#34;color&#34;:{&#34;r&#34;:0.22352941334247589,&#34;g&#34;:0.56470590829849243,&#34;b&#34;:1.0,&#34;a&#34;:1.0},&#34;position&#34;:0.10876122117042542},{&#34;color&#34;:{&#34;r&#34;:0.22352941334247589,&#34;g&#34;:0.56470590829849243,&#34;b&#34;:1.0,&#34;a&#34;:1.0},&#34;position&#34;:0.20001229643821716},{&#34;color&#34;:{&#34;r&#34;:0.0039215688593685627,&#34;g&#34;:0.65098041296005249,&#34;b&#34;:0.72156864404678345,&#34;a&#34;:1.0},&#34;position&#34;:0.26873961091041565},{&#34;color&#34;:{&#34;r&#34;:0.054901961237192154,&#34;g&#34;:0.73725491762161255,&#34;b&#34;:0.37254902720451355,&#34;a&#34;:1.0},&#34;position&#34;:0.33582508563995361},{&#34;color&#34;:{&#34;r&#34;:0.054901961237192154,&#34;g&#34;:0.73725491762161255,&#34;b&#34;:0.37254902720451355,&#34;a&#34;:1.0},&#34;position&#34;:0.42978334426879883},{&#34;color&#34;:{&#34;r&#34;:0.42528781294822693,&#34;g&#34;:0.77231442928314209,&#34;b&#34;:0.0,&#34;a&#34;:1.0},&#34;position&#34;:0.49760133028030396},{&#34;color&#34;:{&#34;r&#34;:1.0,&#34;g&#34;:0.80000001192092896,&#34;b&#34;:0.0,&#34;a&#34;:1.0},&#34;position&#34;:0.56552332639694214},{&#34;color&#34;:{&#34;r&#34;:1.0,&#34;g&#34;:0.82745099067687988,&#34;b&#34;:0.078431375324726105,&#34;a&#34;:1.0},&#34;position&#34;:0.63031959533691406},{&#34;color&#34;:{&#34;r&#34;:1.0,&#34;g&#34;:0.80000001192092896,&#34;b&#34;:0.0,&#34;a&#34;:1.0},&#34;position&#34;:0.69913208484649658},{&#34;color&#34;:{&#34;r&#34;:1.0,&#34;g&#34;:0.41842123866081238,&#34;b&#34;:0.16917318105697632,&#34;a&#34;:1.0},&#34;position&#34;:0.75869029760360718},{&#34;color&#34;:{&#34;r&#34;:1.0,&#34;g&#34;:0.29803922772407532,&#34;b&#34;:0.27058824896812439,&#34;a&#34;:1.0},&#34;position&#34;:0.80362409353256226},{&#34;color&#34;:{&#34;r&#34;:1.0,&#34;g&#34;:0.29803922772407532,&#34;b&#34;:0.27058824896812439,&#34;a&#34;:1.0},&#34;position&#34;:0.99754786491394043}],&#34;transform&#34;:{&#34;m00&#34;:20.369781494140625,&#34;m01&#34;:20.369781494140625,&#34;m02&#34;:-8.1071825027465820,&#34;m10&#34;:-20.349681854248047,&#34;m11&#34;:20.349681854248047,&#34;m12&#34;:19.060920715332031},&#34;opacity&#34;:1.0,&#34;blendMode&#34;:&#34;NORMAL&#34;,&#34;visible&#34;:true}"/>
</g>
<g filter="url(#filter1_f_982_5650)">
<path d="M18.4724 23.0763C23.6762 23.0763 27.8947 21.3261 27.8947 19.1671C27.8947 17.008 23.6762 15.2578 18.4724 15.2578C13.2686 15.2578 9.05005 17.008 9.05005 19.1671C9.05005 21.3261 13.2686 23.0763 18.4724 23.0763Z" fill="#3990FF"/>
</g>
<g filter="url(#filter2_f_982_5650)">
<path d="M29.5791 20.9786C34.7829 20.9786 39.0014 19.2284 39.0014 17.0694C39.0014 14.9104 34.7829 13.1602 29.5791 13.1602C24.3753 13.1602 20.1567 14.9104 20.1567 17.0694C20.1567 19.2284 24.3753 20.9786 29.5791 20.9786Z" fill="#7582FF"/>
</g>
<g filter="url(#filter3_f_982_5650)">
<path d="M19.3459 17.5531C24.5282 17.5531 28.7293 16.2077 28.7293 14.548C28.7293 12.8884 24.5282 11.543 19.3459 11.543C14.1635 11.543 9.9624 12.8884 9.9624 14.548C9.9624 16.2077 14.1635 17.5531 19.3459 17.5531Z" fill="#FF4C45"/>
</g>
<g filter="url(#filter4_f_982_5650)">
<path d="M25.8332 12.4671C31.0155 12.4671 35.2166 11.1217 35.2166 9.46208C35.2166 7.80244 31.0155 6.45703 25.8332 6.45703C20.6508 6.45703 16.4497 7.80244 16.4497 9.46208C16.4497 11.1217 20.6508 12.4671 25.8332 12.4671Z" fill="#FF5B8B"/>
</g>
</g>
<path d="M33.1062 30V8.07975H40.8365C43.0101 8.07975 44.7654 8.73797 46.1022 10.0544C47.4493 11.3709 48.1228 13.121 48.1228 15.3049C48.1228 17.4683 47.4289 19.1776 46.041 20.4329C44.6633 21.6779 42.8928 22.3004 40.7293 22.3004H34.9278V19.346H40.6375C41.8723 19.346 42.8672 18.9837 43.6224 18.2592C44.3776 17.5244 44.7552 16.5448 44.7552 15.3202C44.7552 14.0854 44.3827 13.0853 43.6377 12.3199C42.903 11.5443 41.9335 11.1565 40.7293 11.1565H36.4585V30H33.1062ZM54.8188 30.4898C53.084 30.4898 51.6757 30.0102 50.594 29.0509C49.5225 28.0815 48.9867 26.8263 48.9867 25.2853C48.9867 23.6933 49.6041 22.4228 50.8389 21.4738C52.0737 20.5247 53.6708 20.0502 55.6301 20.0502C56.4567 20.0502 57.2629 20.142 58.0487 20.3257C58.8447 20.5094 59.4927 20.739 59.9927 21.0145V20.0655C59.9927 18.994 59.6152 18.1367 58.86 17.4938C58.115 16.8407 57.1507 16.5141 55.9669 16.5141C55.3036 16.5141 54.7423 16.5907 54.2831 16.7438C53.8341 16.8968 53.431 17.0907 53.0738 17.3254C52.7268 17.55 52.4003 17.8204 52.0941 18.1367C51.788 18.4429 51.6349 18.596 51.6349 18.596L49.5225 16.7897C49.5225 16.7897 49.747 16.5703 50.196 16.1315C50.645 15.6927 51.1451 15.2998 51.6961 14.9528C52.2574 14.6058 52.8901 14.3303 53.5942 14.1262C54.2984 13.9221 55.1556 13.82 56.1659 13.82C58.3395 13.82 60.0489 14.3762 61.2939 15.4886C62.5389 16.5907 63.1614 18.1214 63.1614 20.0808V30H60.0081V26.4028L60.9418 27.811H59.9162C59.4264 28.607 58.7222 29.255 57.8038 29.7551C56.8955 30.2449 55.9006 30.4898 54.8188 30.4898ZM55.4617 27.9182C56.7374 27.9182 57.8089 27.4641 58.6763 26.5558C59.5539 25.6476 59.9927 24.5403 59.9927 23.2341V23.2188C59.5131 22.9127 58.9416 22.6728 58.2783 22.4994C57.6252 22.3259 56.9313 22.2391 56.1965 22.2391C54.9821 22.2391 54.0126 22.484 53.2881 22.9739C52.5737 23.4637 52.2166 24.1985 52.2166 25.1782C52.2166 26.0048 52.5176 26.6681 53.1197 27.1681C53.7218 27.6682 54.5025 27.9182 55.4617 27.9182ZM67.0425 36.5516L70.9306 28.0866L70.9919 30.0153L64.0576 14.2946H67.5477L71.7266 24.275L72.1399 25.4537H72.2165L72.6451 24.2444L76.6097 14.2946H80.0539L70.502 36.5516H67.0425Z" fill="black"/>
</g>
<defs>
<filter id="filter0_f_982_5650" x="-7.09355" y="-0.844532" width="39.8434" height="39.8102" filterUnits="userSpaceOnUse" color-interpolation-filters="sRGB">
<feFlood flood-opacity="0" result="BackgroundImageFix"/>
<feBlend mode="normal" in="SourceGraphic" in2="BackgroundImageFix" result="shape"/>
<feGaussianBlur stdDeviation="1.81094" result="effect1_foregroundBlur_982_5650"/>
</filter>
<clipPath id="paint0_angular_982_5650_clip_path"><path d="M-3.47168 19.061C-3.47168 10.0678 3.82595 2.77734 12.828 2.77734C21.8296 2.77734 29.1279 10.0678 29.1279 19.061C29.1279 28.0541 21.8296 35.3445 12.828 35.3445C3.82595 35.3445 -3.47168 28.0541 -3.47168 19.061Z"/></clipPath><filter id="filter1_f_982_5650" x="7.79154" y="13.9993" width="21.3617" height="10.3373" filterUnits="userSpaceOnUse" color-interpolation-filters="sRGB">
<feFlood flood-opacity="0" result="BackgroundImageFix"/>
<feBlend mode="normal" in="SourceGraphic" in2="BackgroundImageFix" result="shape"/>
<feGaussianBlur stdDeviation="0.629253" result="effect1_foregroundBlur_982_5650"/>
</filter>
<filter id="filter2_f_982_5650" x="8.84533" y="1.84875" width="41.4675" height="30.4431" filterUnits="userSpaceOnUse" color-interpolation-filters="sRGB">
<feFlood flood-opacity="0" result="BackgroundImageFix"/>
<feBlend mode="normal" in="SourceGraphic" in2="BackgroundImageFix" result="shape"/>
<feGaussianBlur stdDeviation="5.6557" result="effect1_foregroundBlur_982_5650"/>
</filter>
<filter id="filter3_f_982_5650" x="-110.221" y="-108.641" width="259.134" height="246.379" filterUnits="userSpaceOnUse" color-interpolation-filters="sRGB">
<feFlood flood-opacity="0" result="BackgroundImageFix"/>
<feBlend mode="normal" in="SourceGraphic" in2="BackgroundImageFix" result="shape"/>
<feGaussianBlur stdDeviation="60.0919" result="effect1_foregroundBlur_982_5650"/>
</filter>
<filter id="filter4_f_982_5650" x="5.1383" y="-4.85438" width="41.3897" height="28.6345" filterUnits="userSpaceOnUse" color-interpolation-filters="sRGB">
<feFlood flood-opacity="0" result="BackgroundImageFix"/>
<feBlend mode="normal" in="SourceGraphic" in2="BackgroundImageFix" result="shape"/>
<feGaussianBlur stdDeviation="5.6557" result="effect1_foregroundBlur_982_5650"/>
</filter>
<clipPath id="clip0_982_5650">
<rect width="80" height="38.1" fill="white"/>
</clipPath>
</defs>
</svg>
